<svg width="20" height="20" viewBox="0 0 20 20" fill="none" xmlns="http://www.w3.org/2000/svg">
<g clip-path="url(#clip0_34_751)">
<path d="M2.77644 6.47827C2.43184 6.47827 2.13946 6.59844 1.89912 6.83878C1.65878 7.07912 1.53857 7.36753 1.53857 7.70413V12.8724C1.53857 13.2174 1.65874 13.5095 1.89912 13.7499C2.13946 13.9902 2.43184 14.1104 2.77644 14.1104C3.12079 14.1104 3.4114 13.9903 3.64801 13.7499C3.88416 13.5096 4.00256 13.2174 4.00256 12.8724V7.70413C4.00256 7.36749 3.88239 7.07912 3.64201 6.83878C3.40163 6.59844 3.11305 6.47827 2.77644 6.47827Z" fill="#7A88AB"/>
<path d="M12.7285 1.83878L13.5819 0.264526C13.6379 0.160304 13.618 0.0803828 13.522 0.0241852C13.4177 -0.0242736 13.3376 0.000281275 13.2816 0.0961138L12.4163 1.68296C11.6549 1.34631 10.8496 1.17768 10.0003 1.17768C9.15094 1.17768 8.34555 1.34635 7.58442 1.68296L6.71907 0.0961138C6.66284 0.000281275 6.58274 -0.0240566 6.47873 0.0241852C6.38247 0.080636 6.36254 0.160304 6.41877 0.264526L7.27219 1.83878C6.40684 2.28008 5.71764 2.89468 5.20485 3.6839C4.69205 4.47356 4.43555 5.33649 4.43555 6.2742H15.5531C15.5531 5.33671 15.2965 4.47374 14.7838 3.6839C14.2709 2.89468 13.5857 2.28008 12.7285 1.83878ZM7.79468 4.12857C7.70239 4.22107 7.59216 4.26711 7.46404 4.26711C7.33566 4.26711 7.22767 4.22107 7.13958 4.12857C7.05149 4.0365 7.00744 3.9267 7.00744 3.79814C7.00744 3.67002 7.05149 3.56001 7.13958 3.46772C7.22767 3.37565 7.33591 3.32961 7.46404 3.32961C7.59216 3.32961 7.70239 3.37565 7.79468 3.46772C7.88675 3.56023 7.933 3.67002 7.933 3.79814C7.93275 3.92649 7.88653 4.0365 7.79468 4.12857ZM12.8606 4.12857C12.7724 4.22107 12.6641 4.26711 12.5362 4.26711C12.4078 4.26711 12.2976 4.22107 12.2055 4.12857C12.1133 4.0365 12.0672 3.9267 12.0672 3.79814C12.0672 3.67002 12.1133 3.56001 12.2055 3.46772C12.2976 3.37565 12.4078 3.32961 12.5362 3.32961C12.6643 3.32961 12.7723 3.37565 12.8606 3.46772C12.9488 3.56023 12.9928 3.67002 12.9928 3.79814C12.9928 3.92649 12.9488 4.0365 12.8606 4.12857Z" fill="#7A88AB"/>
<path d="M4.48328 14.7113C4.48328 15.0802 4.6114 15.3925 4.86769 15.6488C5.1242 15.9051 5.4365 16.0332 5.80519 16.0332H6.69466L6.70684 18.7619C6.70684 19.1065 6.82702 19.3991 7.06736 19.6394C7.3077 19.8798 7.59632 20 7.93271 20C8.27709 20 8.56965 19.8798 8.81003 19.6394C9.0504 19.3991 9.17057 19.1065 9.17057 18.7619V16.0335H10.8292V18.7619C10.8292 19.1065 10.9493 19.3991 11.1897 19.6394C11.4301 19.8798 11.7224 20 12.067 20C12.4114 20 12.7039 19.8798 12.9443 19.6394C13.1847 19.3991 13.3048 19.1065 13.3048 18.7619V16.0335H14.2063C14.5668 16.0335 14.8751 15.9053 15.1319 15.649C15.3881 15.3928 15.5163 15.0805 15.5163 14.7115V6.70642H4.48328V14.7113Z" fill="#7A88AB"/>
<path d="M17.2237 6.47827C16.8871 6.47827 16.5987 6.59667 16.3583 6.83282C16.118 7.0694 15.9978 7.36 15.9978 7.70413V12.8724C15.9978 13.2174 16.1179 13.5095 16.3583 13.7499C16.5987 13.9903 16.8873 14.1104 17.2237 14.1104C17.5681 14.1104 17.8606 13.9903 18.101 13.7499C18.3414 13.5095 18.4615 13.2174 18.4615 12.8724V7.70413C18.4615 7.35997 18.3414 7.0694 18.101 6.83282C17.8606 6.59667 17.5681 6.47827 17.2237 6.47827Z" fill="#7A88AB"/>
</g>
<defs>
<clipPath id="clip0_34_751">
<rect width="20" height="20" fill="white"/>
</clipPath>
</defs>
</svg>
