<svg width="24" height="20" viewBox="0 0 24 20" fill="none" xmlns="http://www.w3.org/2000/svg">
<path fill-rule="evenodd" clip-rule="evenodd" d="M10.229 2.19724C11.547 1.89901 12.9192 1.93953 14.2173 2.31503C15.5155 2.69053 16.6974 3.38875 17.6527 4.34456C17.6601 4.35196 17.6676 4.35923 17.6752 4.36639L20.4754 6.99756H17C16.4477 6.99756 16 7.44527 16 7.99756C16 8.54984 16.4477 8.99756 17 8.99756H22.9872C23.101 8.99898 23.2147 8.98112 23.3233 8.94414C23.4731 8.89313 23.6129 8.80575 23.7288 8.68241C23.8285 8.57622 23.9006 8.45399 23.9453 8.32463C23.9747 8.23949 23.9922 8.15126 23.9979 8.06249C23.9993 8.04087 24 8.01922 24 7.99758C24 7.99686 24 7.99614 24 7.99542V1.99756C24 1.44527 23.5523 0.997559 23 0.997559C22.4477 0.997559 22 1.44527 22 1.99756V5.68577L19.0559 2.91932C17.8637 1.7304 16.3906 0.861665 14.7731 0.393787C13.1503 -0.0755829 11.4352 -0.126239 9.78761 0.246547C8.14003 0.619333 6.61373 1.40341 5.35114 2.52561C4.08855 3.64782 3.13081 5.07158 2.56729 6.66404C2.38305 7.18469 2.65576 7.75611 3.17641 7.94035C3.69705 8.12459 4.26848 7.85188 4.45272 7.33123C4.90353 6.05726 5.66973 4.91825 6.6798 4.02049C7.68987 3.12273 8.91091 2.49547 10.229 2.19724ZM0.179982 11.4251C0.226199 11.359 0.2802 11.2988 0.340654 11.2457C0.401563 11.1922 0.467548 11.1472 0.536976 11.111C0.675414 11.0385 0.832924 10.9976 1 10.9976H7C7.55229 10.9976 8 11.4453 8 11.9976C8 12.5498 7.55229 12.9976 7 12.9976H3.52447L6.32478 15.6289C6.3324 15.636 6.3399 15.6433 6.34729 15.6507C7.30262 16.6065 8.48451 17.3047 9.78267 17.6802C11.0808 18.0557 12.453 18.0963 13.771 17.798C15.0891 17.4998 16.3101 16.8725 17.3202 15.9748C18.3303 15.077 19.0965 13.938 19.5473 12.664C19.7315 12.1434 20.303 11.8707 20.8236 12.0549C21.3442 12.2392 21.617 12.8106 21.4327 13.3312C20.8692 14.9237 19.9115 16.3474 18.6489 17.4697C17.3863 18.5919 15.86 19.3759 14.2124 19.7487C12.5648 20.1215 10.8497 20.0709 9.22695 19.6015C7.6094 19.1336 6.13627 18.2649 4.94411 17.0759L2 14.3095V17.9976C2 18.5498 1.55229 18.9976 1 18.9976C0.447718 18.9976 3.0293e-06 18.5498 3.0293e-06 17.9976V11.9999V11.9976C3.0293e-06 11.9868 0.000172883 11.9761 0.000510054 11.9654C0.00014376 11.9769 -2.51914e-05 11.9884 3.0293e-06 11.9999M0.179982 11.4251C0.14679 11.4725 0.117613 11.523 0.0929431 11.576C0.117189 11.5239 0.146195 11.4733 0.179982 11.4251Z" fill="#54CE84"/>
</svg>
