<svg width="27" height="26" viewBox="0 0 27 26" fill="none" xmlns="http://www.w3.org/2000/svg">
<path fill-rule="evenodd" clip-rule="evenodd" d="M13.2222 0C5.91694 0 0 5.84994 0 13.0725C0 18.8571 3.78486 23.7429 9.04069 25.475C9.70181 25.5894 9.94972 25.1972 9.94972 24.8541C9.94972 24.5436 9.9332 23.5142 9.9332 22.4193C6.61111 23.0239 5.75167 21.6186 5.48722 20.8833C5.33847 20.5075 4.69389 19.3473 4.13194 19.0368C3.66917 18.7917 3.00806 18.1871 4.11542 18.1708C5.15667 18.1544 5.90042 19.1185 6.14833 19.5107C7.33833 21.4879 9.23903 20.9323 9.99931 20.5892C10.115 19.7395 10.4621 19.1675 10.8422 18.8407C7.90028 18.5139 4.82611 17.3864 4.82611 12.3862C4.82611 10.9646 5.33847 9.78803 6.18139 8.87296C6.04917 8.54614 5.58639 7.20621 6.31361 5.40875C6.31361 5.40875 7.42097 5.06559 9.94972 6.74868C11.0075 6.45455 12.1314 6.30748 13.2553 6.30748C14.3792 6.30748 15.5031 6.45455 16.5608 6.74868C19.0896 5.04925 20.1969 5.40875 20.1969 5.40875C20.9242 7.20621 20.4614 8.54614 20.3292 8.87296C21.1721 9.78803 21.6844 10.9482 21.6844 12.3862C21.6844 17.4028 18.5938 18.5139 15.6518 18.8407C16.1311 19.2493 16.5443 20.0336 16.5443 21.2591C16.5443 23.0076 16.5278 24.4129 16.5278 24.8541C16.5278 25.1972 16.7757 25.6058 17.4368 25.475C22.6596 23.7429 26.4444 18.8407 26.4444 13.0725C26.4444 5.84994 20.5275 0 13.2222 0Z" fill="white"/>
</svg>
