<svg width="24" height="12" viewBox="0 0 24 12" fill="none" xmlns="http://www.w3.org/2000/svg">
<path d="M1.815 2.015C1.515 2.015 1.275 1.935 1.095 1.775C0.925 1.605 0.84 1.375 0.84 1.085C0.84 0.794999 0.925 0.569999 1.095 0.41C1.275 0.239999 1.515 0.154999 1.815 0.154999C2.115 0.154999 2.35 0.239999 2.52 0.41C2.7 0.569999 2.79 0.794999 2.79 1.085C2.79 1.375 2.7 1.605 2.52 1.775C2.35 1.935 2.115 2.015 1.815 2.015ZM1.02 11V3.5H2.595V11H1.02ZM9.54527 11.195C8.56527 11.195 7.66027 10.955 6.83027 10.475C6.00027 9.985 5.34027 9.325 4.85027 8.495C4.37027 7.665 4.13027 6.76 4.13027 5.78C4.13027 4.8 4.37027 3.895 4.85027 3.065C5.34027 2.235 6.00027 1.58 6.83027 1.1C7.66027 0.609999 8.56527 0.364999 9.54527 0.364999C10.5253 0.364999 11.4303 0.609999 12.2603 1.1C13.0903 1.58 13.7453 2.235 14.2253 3.065C14.7153 3.895 14.9603 4.8 14.9603 5.78C14.9603 6.76 14.7153 7.665 14.2253 8.495C13.7453 9.325 13.0903 9.985 12.2603 10.475C11.4303 10.955 10.5253 11.195 9.54527 11.195ZM9.54527 9.53C10.2253 9.53 10.8503 9.365 11.4203 9.035C12.0003 8.695 12.4553 8.24 12.7853 7.67C13.1253 7.09 13.2953 6.46 13.2953 5.78C13.2953 5.1 13.1253 4.475 12.7853 3.905C12.4553 3.325 12.0003 2.87 11.4203 2.54C10.8503 2.2 10.2253 2.03 9.54527 2.03C8.86527 2.03 8.23527 2.2 7.65527 2.54C7.08527 2.87 6.63027 3.325 6.29027 3.905C5.96027 4.475 5.79527 5.1 5.79527 5.78C5.79527 6.46 5.96027 7.09 6.29027 7.67C6.63027 8.24 7.08527 8.695 7.65527 9.035C8.23527 9.365 8.86527 9.53 9.54527 9.53ZM19.6475 11.195C18.6375 11.195 17.7825 10.965 17.0825 10.505C16.3925 10.045 15.9075 9.425 15.6275 8.645L17.0525 7.82C17.2525 8.37 17.5725 8.8 18.0125 9.11C18.4525 9.41 19.0125 9.56 19.6925 9.56C20.3325 9.56 20.8175 9.41 21.1475 9.11C21.4875 8.8 21.6575 8.445 21.6575 8.045C21.6575 7.655 21.4725 7.34 21.1025 7.1C20.7325 6.86 20.1225 6.615 19.2725 6.365C18.5925 6.155 18.0275 5.94 17.5775 5.72C17.1375 5.5 16.7725 5.195 16.4825 4.805C16.2025 4.415 16.0625 3.92 16.0625 3.32C16.0625 2.71 16.2125 2.18 16.5125 1.73C16.8225 1.27 17.2325 0.92 17.7425 0.68C18.2525 0.429999 18.8125 0.304999 19.4225 0.304999C20.2625 0.304999 20.9925 0.509999 21.6125 0.919999C22.2325 1.33 22.7025 1.89 23.0225 2.6L21.5975 3.41C21.1775 2.44 20.4525 1.955 19.4225 1.955C18.9125 1.955 18.5025 2.09 18.1925 2.36C17.8825 2.62 17.7275 2.935 17.7275 3.305C17.7275 3.585 17.8025 3.815 17.9525 3.995C18.1025 4.165 18.3225 4.32 18.6125 4.46C18.9125 4.59 19.3425 4.745 19.9025 4.925C20.6225 5.145 21.2175 5.375 21.6875 5.615C22.1575 5.845 22.5475 6.165 22.8575 6.575C23.1675 6.985 23.3225 7.505 23.3225 8.135C23.3225 8.745 23.1625 9.285 22.8425 9.755C22.5325 10.215 22.0975 10.57 21.5375 10.82C20.9875 11.07 20.3575 11.195 19.6475 11.195Z" fill="#7A88AB"/>
</svg>
