<svg width="19" height="19" viewBox="0 0 19 19" fill="none" xmlns="http://www.w3.org/2000/svg">
<path d="M5.31852 8.64995L8.77334 1C9.46055 1 10.1196 1.26866 10.6055 1.74687C11.0915 2.22509 11.3645 2.87369 11.3645 3.54998V6.94996H16.253C16.5034 6.94717 16.7514 6.99799 16.9799 7.0989C17.2084 7.1998 17.4118 7.34838 17.5761 7.53435C17.7404 7.72031 17.8617 7.9392 17.9315 8.17587C18.0013 8.41253 18.018 8.6613 17.9804 8.90495L16.7885 16.5549C16.7261 16.9603 16.5168 17.3298 16.1994 17.5953C15.882 17.8608 15.4777 18.0045 15.0611 17.9999H5.31852M5.31852 8.64995V17.9999M5.31852 8.64995H2.72741C2.26927 8.64995 1.8299 8.82906 1.50595 9.14787C1.18199 9.46668 1 9.89907 1 10.3499V16.2999C1 16.7508 1.18199 17.1832 1.50595 17.502C1.8299 17.8208 2.26927 17.9999 2.72741 17.9999H5.31852" stroke="#5478CE" stroke-width="2" stroke-linecap="round" stroke-linejoin="round"/>
</svg>
